<mxfile host="app.diagrams.net" modified="2022-01-14T02:00:48.312Z" agent="5.0 (Windows NT 10.0; Win64; x64) AppleWebKit/537.36 (KHTML, like Gecko) Chrome/97.0.4692.71 Safari/537.36" etag="XbgHX3D9x1YfTJPF1O64" version="16.2.6" type="github">
  <diagram id="oqELM2-vYSNSNYD7lVRX" name="Page-1">
    <mxGraphModel dx="1673" dy="906" grid="1" gridSize="10" guides="1" tooltips="1" connect="1" arrows="1" fold="1" page="1" pageScale="1" pageWidth="1200" pageHeight="1920" math="0" shadow="0">
      <root>
        <mxCell id="0" />
        <mxCell id="1" parent="0" />
        <mxCell id="oAlstTwlUcWoPY1bMoXB-25" value="" style="group" vertex="1" connectable="0" parent="1">
          <mxGeometry x="30" y="130" width="772.5" height="480" as="geometry" />
        </mxCell>
        <mxCell id="oAlstTwlUcWoPY1bMoXB-26" value="Position&lt;br&gt;control" style="rounded=0;whiteSpace=wrap;html=1;" vertex="1" parent="oAlstTwlUcWoPY1bMoXB-25">
          <mxGeometry x="353" y="190" width="70" height="40" as="geometry" />
        </mxCell>
        <mxCell id="oAlstTwlUcWoPY1bMoXB-27" value="Velocity&lt;br&gt;control" style="rounded=0;whiteSpace=wrap;html=1;" vertex="1" parent="oAlstTwlUcWoPY1bMoXB-25">
          <mxGeometry x="483" y="189" width="70" height="40" as="geometry" />
        </mxCell>
        <mxCell id="oAlstTwlUcWoPY1bMoXB-28" value="Current&lt;br&gt;control" style="rounded=0;whiteSpace=wrap;html=1;" vertex="1" parent="oAlstTwlUcWoPY1bMoXB-25">
          <mxGeometry x="613" y="189" width="70" height="40" as="geometry" />
        </mxCell>
        <mxCell id="oAlstTwlUcWoPY1bMoXB-29" value="Motor" style="ellipse;whiteSpace=wrap;html=1;aspect=fixed;" vertex="1" parent="oAlstTwlUcWoPY1bMoXB-25">
          <mxGeometry x="785.5" y="179" width="60" height="60" as="geometry" />
        </mxCell>
        <mxCell id="oAlstTwlUcWoPY1bMoXB-30" value="Potentiometer" style="rounded=0;whiteSpace=wrap;html=1;" vertex="1" parent="oAlstTwlUcWoPY1bMoXB-25">
          <mxGeometry x="683" y="420" width="90" height="40" as="geometry" />
        </mxCell>
        <mxCell id="oAlstTwlUcWoPY1bMoXB-31" style="edgeStyle=orthogonalEdgeStyle;rounded=0;orthogonalLoop=1;jettySize=auto;html=1;exitX=0.5;exitY=1;exitDx=0;exitDy=0;entryX=1;entryY=0.5;entryDx=0;entryDy=0;" edge="1" parent="oAlstTwlUcWoPY1bMoXB-25" source="oAlstTwlUcWoPY1bMoXB-29" target="oAlstTwlUcWoPY1bMoXB-30">
          <mxGeometry relative="1" as="geometry" />
        </mxCell>
        <mxCell id="oAlstTwlUcWoPY1bMoXB-32" style="edgeStyle=orthogonalEdgeStyle;rounded=0;orthogonalLoop=1;jettySize=auto;html=1;exitX=1;exitY=0.5;exitDx=0;exitDy=0;entryX=0;entryY=0.5;entryDx=0;entryDy=0;" edge="1" parent="oAlstTwlUcWoPY1bMoXB-25" source="oAlstTwlUcWoPY1bMoXB-33" target="oAlstTwlUcWoPY1bMoXB-27">
          <mxGeometry relative="1" as="geometry" />
        </mxCell>
        <mxCell id="oAlstTwlUcWoPY1bMoXB-33" value="" style="ellipse;whiteSpace=wrap;html=1;aspect=fixed;" vertex="1" parent="oAlstTwlUcWoPY1bMoXB-25">
          <mxGeometry x="447" y="200" width="20" height="20" as="geometry" />
        </mxCell>
        <mxCell id="oAlstTwlUcWoPY1bMoXB-34" style="edgeStyle=orthogonalEdgeStyle;rounded=0;orthogonalLoop=1;jettySize=auto;html=1;exitX=1;exitY=0.5;exitDx=0;exitDy=0;entryX=0;entryY=0.5;entryDx=0;entryDy=0;" edge="1" parent="oAlstTwlUcWoPY1bMoXB-25" source="oAlstTwlUcWoPY1bMoXB-26" target="oAlstTwlUcWoPY1bMoXB-33">
          <mxGeometry relative="1" as="geometry" />
        </mxCell>
        <mxCell id="oAlstTwlUcWoPY1bMoXB-35" style="edgeStyle=orthogonalEdgeStyle;rounded=0;orthogonalLoop=1;jettySize=auto;html=1;exitX=1;exitY=0.5;exitDx=0;exitDy=0;entryX=0;entryY=0.5;entryDx=0;entryDy=0;" edge="1" parent="oAlstTwlUcWoPY1bMoXB-25" source="oAlstTwlUcWoPY1bMoXB-36" target="oAlstTwlUcWoPY1bMoXB-28">
          <mxGeometry relative="1" as="geometry" />
        </mxCell>
        <mxCell id="oAlstTwlUcWoPY1bMoXB-36" value="" style="ellipse;whiteSpace=wrap;html=1;aspect=fixed;" vertex="1" parent="oAlstTwlUcWoPY1bMoXB-25">
          <mxGeometry x="573" y="199" width="20" height="20" as="geometry" />
        </mxCell>
        <mxCell id="oAlstTwlUcWoPY1bMoXB-37" style="edgeStyle=orthogonalEdgeStyle;rounded=0;orthogonalLoop=1;jettySize=auto;html=1;exitX=1;exitY=0.5;exitDx=0;exitDy=0;entryX=0;entryY=0.5;entryDx=0;entryDy=0;" edge="1" parent="oAlstTwlUcWoPY1bMoXB-25" source="oAlstTwlUcWoPY1bMoXB-27" target="oAlstTwlUcWoPY1bMoXB-36">
          <mxGeometry relative="1" as="geometry" />
        </mxCell>
        <mxCell id="oAlstTwlUcWoPY1bMoXB-38" style="edgeStyle=orthogonalEdgeStyle;rounded=0;orthogonalLoop=1;jettySize=auto;html=1;entryX=0.5;entryY=0;entryDx=0;entryDy=0;" edge="1" parent="oAlstTwlUcWoPY1bMoXB-25" target="oAlstTwlUcWoPY1bMoXB-33">
          <mxGeometry relative="1" as="geometry">
            <mxPoint x="10" y="110" as="sourcePoint" />
          </mxGeometry>
        </mxCell>
        <mxCell id="oAlstTwlUcWoPY1bMoXB-39" style="edgeStyle=orthogonalEdgeStyle;rounded=0;orthogonalLoop=1;jettySize=auto;html=1;entryX=0.007;entryY=0.781;entryDx=0;entryDy=0;entryPerimeter=0;" edge="1" parent="oAlstTwlUcWoPY1bMoXB-25" target="oAlstTwlUcWoPY1bMoXB-67">
          <mxGeometry relative="1" as="geometry">
            <mxPoint x="10" y="186" as="sourcePoint" />
            <mxPoint x="130" y="180" as="targetPoint" />
            <Array as="points">
              <mxPoint x="10" y="186" />
              <mxPoint x="80" y="186" />
            </Array>
          </mxGeometry>
        </mxCell>
        <mxCell id="oAlstTwlUcWoPY1bMoXB-40" style="edgeStyle=orthogonalEdgeStyle;rounded=0;orthogonalLoop=1;jettySize=auto;html=1;exitX=1;exitY=0.5;exitDx=0;exitDy=0;entryX=0;entryY=0.5;entryDx=0;entryDy=0;" edge="1" parent="oAlstTwlUcWoPY1bMoXB-25" source="oAlstTwlUcWoPY1bMoXB-41" target="oAlstTwlUcWoPY1bMoXB-26">
          <mxGeometry relative="1" as="geometry" />
        </mxCell>
        <mxCell id="oAlstTwlUcWoPY1bMoXB-41" value="Interpolate&lt;br&gt;Position&lt;br&gt;commnad" style="rounded=0;whiteSpace=wrap;html=1;" vertex="1" parent="oAlstTwlUcWoPY1bMoXB-25">
          <mxGeometry x="233" y="130" width="70" height="160" as="geometry" />
        </mxCell>
        <mxCell id="oAlstTwlUcWoPY1bMoXB-42" style="edgeStyle=orthogonalEdgeStyle;rounded=0;orthogonalLoop=1;jettySize=auto;html=1;entryX=0.5;entryY=0;entryDx=0;entryDy=0;" edge="1" parent="oAlstTwlUcWoPY1bMoXB-25" target="oAlstTwlUcWoPY1bMoXB-36">
          <mxGeometry relative="1" as="geometry">
            <mxPoint x="10" y="60" as="sourcePoint" />
          </mxGeometry>
        </mxCell>
        <mxCell id="oAlstTwlUcWoPY1bMoXB-43" style="edgeStyle=orthogonalEdgeStyle;rounded=0;orthogonalLoop=1;jettySize=auto;html=1;entryX=0;entryY=0.75;entryDx=0;entryDy=0;" edge="1" parent="oAlstTwlUcWoPY1bMoXB-25" target="oAlstTwlUcWoPY1bMoXB-41">
          <mxGeometry relative="1" as="geometry">
            <mxPoint x="10" y="250" as="sourcePoint" />
          </mxGeometry>
        </mxCell>
        <mxCell id="oAlstTwlUcWoPY1bMoXB-44" style="edgeStyle=orthogonalEdgeStyle;rounded=0;orthogonalLoop=1;jettySize=auto;html=1;exitX=0;exitY=0.5;exitDx=0;exitDy=0;entryX=0.5;entryY=1;entryDx=0;entryDy=0;" edge="1" parent="oAlstTwlUcWoPY1bMoXB-25" source="oAlstTwlUcWoPY1bMoXB-45" target="oAlstTwlUcWoPY1bMoXB-27">
          <mxGeometry relative="1" as="geometry" />
        </mxCell>
        <mxCell id="oAlstTwlUcWoPY1bMoXB-45" value="Speed&lt;br&gt;Calcuation" style="rounded=0;whiteSpace=wrap;html=1;" vertex="1" parent="oAlstTwlUcWoPY1bMoXB-25">
          <mxGeometry x="553" y="390" width="70" height="40" as="geometry" />
        </mxCell>
        <mxCell id="oAlstTwlUcWoPY1bMoXB-46" style="edgeStyle=orthogonalEdgeStyle;rounded=0;orthogonalLoop=1;jettySize=auto;html=1;exitX=0;exitY=0.5;exitDx=0;exitDy=0;entryX=1;entryY=0.5;entryDx=0;entryDy=0;" edge="1" parent="oAlstTwlUcWoPY1bMoXB-25" source="oAlstTwlUcWoPY1bMoXB-30" target="oAlstTwlUcWoPY1bMoXB-45">
          <mxGeometry relative="1" as="geometry" />
        </mxCell>
        <mxCell id="oAlstTwlUcWoPY1bMoXB-47" style="edgeStyle=orthogonalEdgeStyle;rounded=0;orthogonalLoop=1;jettySize=auto;html=1;exitX=0;exitY=0.5;exitDx=0;exitDy=0;entryX=0.5;entryY=1;entryDx=0;entryDy=0;" edge="1" parent="oAlstTwlUcWoPY1bMoXB-25" source="oAlstTwlUcWoPY1bMoXB-49" target="oAlstTwlUcWoPY1bMoXB-28">
          <mxGeometry relative="1" as="geometry" />
        </mxCell>
        <mxCell id="oAlstTwlUcWoPY1bMoXB-48" style="edgeStyle=orthogonalEdgeStyle;rounded=0;orthogonalLoop=1;jettySize=auto;html=1;exitX=0;exitY=0.5;exitDx=0;exitDy=0;" edge="1" parent="oAlstTwlUcWoPY1bMoXB-25" source="oAlstTwlUcWoPY1bMoXB-49">
          <mxGeometry relative="1" as="geometry">
            <mxPoint x="10" y="370" as="targetPoint" />
          </mxGeometry>
        </mxCell>
        <mxCell id="oAlstTwlUcWoPY1bMoXB-49" value="Current&lt;br&gt;Feedback" style="rounded=0;whiteSpace=wrap;html=1;" vertex="1" parent="oAlstTwlUcWoPY1bMoXB-25">
          <mxGeometry x="683" y="350" width="90" height="40" as="geometry" />
        </mxCell>
        <mxCell id="oAlstTwlUcWoPY1bMoXB-50" style="edgeStyle=orthogonalEdgeStyle;rounded=0;orthogonalLoop=1;jettySize=auto;html=1;exitX=0.5;exitY=1;exitDx=0;exitDy=0;entryX=1;entryY=0.5;entryDx=0;entryDy=0;" edge="1" parent="oAlstTwlUcWoPY1bMoXB-25" source="oAlstTwlUcWoPY1bMoXB-29" target="oAlstTwlUcWoPY1bMoXB-49">
          <mxGeometry relative="1" as="geometry" />
        </mxCell>
        <mxCell id="oAlstTwlUcWoPY1bMoXB-51" style="edgeStyle=orthogonalEdgeStyle;rounded=0;orthogonalLoop=1;jettySize=auto;html=1;exitX=0;exitY=0.5;exitDx=0;exitDy=0;entryX=0.5;entryY=1;entryDx=0;entryDy=0;" edge="1" parent="oAlstTwlUcWoPY1bMoXB-25" source="oAlstTwlUcWoPY1bMoXB-53" target="oAlstTwlUcWoPY1bMoXB-26">
          <mxGeometry relative="1" as="geometry" />
        </mxCell>
        <mxCell id="oAlstTwlUcWoPY1bMoXB-52" style="edgeStyle=orthogonalEdgeStyle;rounded=0;orthogonalLoop=1;jettySize=auto;html=1;exitX=0;exitY=0.5;exitDx=0;exitDy=0;" edge="1" parent="oAlstTwlUcWoPY1bMoXB-25" source="oAlstTwlUcWoPY1bMoXB-53">
          <mxGeometry relative="1" as="geometry">
            <mxPoint x="10" y="460" as="targetPoint" />
          </mxGeometry>
        </mxCell>
        <mxCell id="oAlstTwlUcWoPY1bMoXB-53" value="Position&lt;br&gt;Value" style="rounded=0;whiteSpace=wrap;html=1;" vertex="1" parent="oAlstTwlUcWoPY1bMoXB-25">
          <mxGeometry x="553" y="440" width="70" height="40" as="geometry" />
        </mxCell>
        <mxCell id="oAlstTwlUcWoPY1bMoXB-54" value="Present Current" style="text;html=1;strokeColor=none;fillColor=none;align=center;verticalAlign=middle;whiteSpace=wrap;rounded=0;" vertex="1" parent="oAlstTwlUcWoPY1bMoXB-25">
          <mxGeometry x="20" y="350" width="100" height="30" as="geometry" />
        </mxCell>
        <mxCell id="oAlstTwlUcWoPY1bMoXB-55" value="Present Position" style="text;html=1;strokeColor=none;fillColor=none;align=center;verticalAlign=middle;whiteSpace=wrap;rounded=0;" vertex="1" parent="oAlstTwlUcWoPY1bMoXB-25">
          <mxGeometry x="20" y="440" width="100" height="30" as="geometry" />
        </mxCell>
        <mxCell id="oAlstTwlUcWoPY1bMoXB-56" style="edgeStyle=orthogonalEdgeStyle;rounded=0;orthogonalLoop=1;jettySize=auto;html=1;exitX=0;exitY=0.5;exitDx=0;exitDy=0;entryX=1;entryY=0.5;entryDx=0;entryDy=0;" edge="1" parent="oAlstTwlUcWoPY1bMoXB-25" source="oAlstTwlUcWoPY1bMoXB-30" target="oAlstTwlUcWoPY1bMoXB-53">
          <mxGeometry relative="1" as="geometry" />
        </mxCell>
        <mxCell id="oAlstTwlUcWoPY1bMoXB-57" style="edgeStyle=orthogonalEdgeStyle;rounded=0;orthogonalLoop=1;jettySize=auto;html=1;" edge="1" parent="oAlstTwlUcWoPY1bMoXB-25" source="oAlstTwlUcWoPY1bMoXB-28" target="oAlstTwlUcWoPY1bMoXB-29">
          <mxGeometry relative="1" as="geometry">
            <mxPoint x="743" y="209" as="sourcePoint" />
          </mxGeometry>
        </mxCell>
        <mxCell id="oAlstTwlUcWoPY1bMoXB-58" style="edgeStyle=orthogonalEdgeStyle;rounded=0;orthogonalLoop=1;jettySize=auto;html=1;exitX=1;exitY=0.5;exitDx=0;exitDy=0;" edge="1" parent="oAlstTwlUcWoPY1bMoXB-25" source="oAlstTwlUcWoPY1bMoXB-28">
          <mxGeometry relative="1" as="geometry">
            <mxPoint x="10" y="335" as="targetPoint" />
            <mxPoint x="660" y="219" as="sourcePoint" />
            <Array as="points">
              <mxPoint x="730" y="209" />
              <mxPoint x="730" y="335" />
            </Array>
          </mxGeometry>
        </mxCell>
        <mxCell id="oAlstTwlUcWoPY1bMoXB-59" style="edgeStyle=orthogonalEdgeStyle;rounded=0;orthogonalLoop=1;jettySize=auto;html=1;entryX=0.5;entryY=0;entryDx=0;entryDy=0;exitX=0;exitY=0;exitDx=0;exitDy=0;" edge="1" parent="oAlstTwlUcWoPY1bMoXB-25" source="oAlstTwlUcWoPY1bMoXB-61" target="oAlstTwlUcWoPY1bMoXB-28">
          <mxGeometry relative="1" as="geometry">
            <mxPoint x="10" y="10" as="sourcePoint" />
            <mxPoint x="660" y="140" as="targetPoint" />
            <Array as="points">
              <mxPoint x="648" y="30" />
            </Array>
          </mxGeometry>
        </mxCell>
        <mxCell id="oAlstTwlUcWoPY1bMoXB-60" value="Present Motor Operating Rate" style="text;html=1;strokeColor=none;fillColor=none;align=center;verticalAlign=middle;whiteSpace=wrap;rounded=0;" vertex="1" parent="oAlstTwlUcWoPY1bMoXB-25">
          <mxGeometry x="20" y="310" width="170" height="30" as="geometry" />
        </mxCell>
        <mxCell id="oAlstTwlUcWoPY1bMoXB-61" value="Goal Current" style="rounded=0;whiteSpace=wrap;html=1;strokeColor=none;fillColor=none;align=left;" vertex="1" parent="oAlstTwlUcWoPY1bMoXB-25">
          <mxGeometry x="10" y="30" width="90" height="40" as="geometry" />
        </mxCell>
        <mxCell id="oAlstTwlUcWoPY1bMoXB-62" value="Motor&amp;nbsp;Operating Rate&amp;nbsp;Limit" style="rounded=0;whiteSpace=wrap;html=1;fillColor=none;strokeColor=none;" vertex="1" parent="oAlstTwlUcWoPY1bMoXB-25">
          <mxGeometry width="170" height="40" as="geometry" />
        </mxCell>
        <mxCell id="oAlstTwlUcWoPY1bMoXB-63" value="Goal Speed" style="rounded=0;whiteSpace=wrap;html=1;fillColor=none;strokeColor=none;align=left;" vertex="1" parent="oAlstTwlUcWoPY1bMoXB-25">
          <mxGeometry x="10" y="90" width="90" height="20" as="geometry" />
        </mxCell>
        <mxCell id="oAlstTwlUcWoPY1bMoXB-64" value="Position Value" style="rounded=0;whiteSpace=wrap;html=1;fillColor=none;strokeColor=none;align=left;" vertex="1" parent="oAlstTwlUcWoPY1bMoXB-25">
          <mxGeometry x="10" y="169" width="90" height="20" as="geometry" />
        </mxCell>
        <mxCell id="oAlstTwlUcWoPY1bMoXB-65" value="Acceleration&lt;br&gt;/Deceleration" style="rounded=0;whiteSpace=wrap;html=1;align=left;fillColor=none;strokeColor=none;" vertex="1" parent="oAlstTwlUcWoPY1bMoXB-25">
          <mxGeometry x="10" y="210" width="90" height="40" as="geometry" />
        </mxCell>
        <mxCell id="oAlstTwlUcWoPY1bMoXB-78" style="edgeStyle=orthogonalEdgeStyle;rounded=0;orthogonalLoop=1;jettySize=auto;html=1;exitX=1;exitY=0.5;exitDx=0;exitDy=0;entryX=0.001;entryY=0.243;entryDx=0;entryDy=0;entryPerimeter=0;fontSize=8;" edge="1" parent="oAlstTwlUcWoPY1bMoXB-25" source="oAlstTwlUcWoPY1bMoXB-67" target="oAlstTwlUcWoPY1bMoXB-41">
          <mxGeometry relative="1" as="geometry" />
        </mxCell>
        <mxCell id="oAlstTwlUcWoPY1bMoXB-67" value="" style="whiteSpace=wrap;html=1;aspect=fixed;fontSize=8;" vertex="1" parent="oAlstTwlUcWoPY1bMoXB-25">
          <mxGeometry x="150" y="139" width="60" height="60" as="geometry" />
        </mxCell>
        <mxCell id="oAlstTwlUcWoPY1bMoXB-74" value="" style="group" vertex="1" connectable="0" parent="oAlstTwlUcWoPY1bMoXB-25">
          <mxGeometry x="160" y="149" width="40" height="40" as="geometry" />
        </mxCell>
        <mxCell id="oAlstTwlUcWoPY1bMoXB-68" value="" style="endArrow=none;html=1;rounded=0;fontSize=8;" edge="1" parent="oAlstTwlUcWoPY1bMoXB-74">
          <mxGeometry width="50" height="50" relative="1" as="geometry">
            <mxPoint y="20" as="sourcePoint" />
            <mxPoint x="40" y="20" as="targetPoint" />
          </mxGeometry>
        </mxCell>
        <mxCell id="oAlstTwlUcWoPY1bMoXB-69" value="" style="endArrow=none;html=1;rounded=0;fontSize=8;" edge="1" parent="oAlstTwlUcWoPY1bMoXB-74">
          <mxGeometry width="50" height="50" relative="1" as="geometry">
            <mxPoint x="20" y="40" as="sourcePoint" />
            <mxPoint x="20" as="targetPoint" />
          </mxGeometry>
        </mxCell>
        <mxCell id="oAlstTwlUcWoPY1bMoXB-73" value="" style="endArrow=none;html=1;rounded=0;fontSize=8;" edge="1" parent="oAlstTwlUcWoPY1bMoXB-74">
          <mxGeometry width="50" height="50" relative="1" as="geometry">
            <mxPoint y="35" as="sourcePoint" />
            <mxPoint x="40" y="5" as="targetPoint" />
            <Array as="points">
              <mxPoint x="5" y="35" />
              <mxPoint x="35" y="5" />
            </Array>
          </mxGeometry>
        </mxCell>
        <mxCell id="oAlstTwlUcWoPY1bMoXB-76" style="edgeStyle=orthogonalEdgeStyle;rounded=0;orthogonalLoop=1;jettySize=auto;html=1;" edge="1" parent="oAlstTwlUcWoPY1bMoXB-25">
          <mxGeometry relative="1" as="geometry">
            <mxPoint x="9.579999999999998" y="156" as="sourcePoint" />
            <mxPoint x="150" y="156" as="targetPoint" />
            <Array as="points">
              <mxPoint x="9.579999999999998" y="156" />
              <mxPoint x="79.58" y="156" />
            </Array>
          </mxGeometry>
        </mxCell>
        <mxCell id="oAlstTwlUcWoPY1bMoXB-77" value="Position Limit" style="rounded=0;whiteSpace=wrap;html=1;fillColor=none;strokeColor=none;align=left;" vertex="1" parent="oAlstTwlUcWoPY1bMoXB-25">
          <mxGeometry x="9.579999999999998" y="139" width="90" height="20" as="geometry" />
        </mxCell>
      </root>
    </mxGraphModel>
  </diagram>
</mxfile>
